# xmcd CD Database Entry
#
# Track frame offsets:
# 150
# 26427
# 61177
# 74447
# 95442
# 114485
# 136355
# 158222
# 177562
#
# Disc length: 2519 seconds
#
# Revision: 2
# Processed by: cddbd v1.4b42PL1 Copyright (c) Steve Scherf et al.
# Submitted via: tcd 2.0b
#
DISCID=7809d509
DTITLE=Various Artist - The Blues... "A real summit meeting" 1/2
DYEAR=1900
DGENRE=
TTITLE0="Big Mama" Thornton - Little Red Rooster
TTITLE1="Big Mama" Thornton - Ball and Chain
TTITLE2=Jay McShann - Smooth Sailing
TTITLE3=Jay McShann - Confessin' the Blues
TTITLE4=Eddie "Cleanhead" Vinson - They Call Me Mr. Cleanhead
TTITLE5=Eddie "Cleanhead" Vinson - Hold it Right There
TTITLE6=Eddie "Cleanhead" Vinson - Back Door Blues
TTITLE7=Eddie "Cleanhead" Vinson - Kidney Stew Blues
TTITLE8=Arthur "Big Boy" Crudup - That's Alright Now Mama
EXTD=[Catégorie: Blues]\n[Enregistrement: 1973]
EXTT0="Big Mama" Thornton
EXTT1="Big Mama" Thornton
EXTT2=Jay McShann
EXTT3=Jay McShann
EXTT4=Eddie "Cleanhead" Vinson
EXTT5=Eddie "Cleanhead" Vinson
EXTT6=Eddie "Cleanhead" Vinson
EXTT7=Eddie "Cleanhead" Vinson
EXTT8=Arthur "Big Boy" Crudup
PLAYORDER=
